<svg fill="#4DC3F4" width="52" height="52" viewBox="0 0 64 64" xmlns="http://www.w3.org/2000/svg"><path fill-rule="evenodd" clip-rule="evenodd" d="M40.4025 7.99573C41.5972 7.59467 42.3993 7.59467 42.3993 7.59467L40.01 64L4.00781 57.1989C4.00781 57.1989 8.80354 20.8043 8.80354 19.6011C8.80354 18.0053 8.80354 18.0053 10.8004 17.2032C10.9745 17.2032 11.4496 17.0519 12.1935 16.8151C13.1626 16.5065 14.5879 16.0527 16.3982 15.5989C17.6014 10.4021 21.6036 0 30.0004 0C31.2036 0 32.3983 0.392533 33.2004 1.9968H33.6015C37.2025 1.9968 39.1993 4.79573 40.4025 7.99573ZM29.0661 11.6338C30.4685 11.2066 31.9188 10.7648 33.2004 9.99253C33.2004 7.59468 32.7993 5.99042 32.3983 4.38616C30.4015 5.1883 28.0036 7.58613 26.8004 12.3904C27.5156 12.1061 28.2834 11.8722 29.0661 11.6338ZM30.8025 2.79893C30.4014 2.39787 30.0004 2.39787 29.5993 2.39787C23.9929 2.39787 20.4004 9.99253 19.1972 14.8053C19.9993 14.6048 20.7993 14.304 21.5993 14.0032C22.3993 13.7024 23.1993 13.4016 24.0015 13.2011C25.2047 6.80107 28.4046 4.00213 30.8025 2.79893ZM26.3993 28.7915C28.7972 28.7915 31.1951 29.9947 31.1951 29.9947L32.7908 22.8011C32.7908 22.8011 31.1951 21.9989 27.995 21.9989C19.1972 21.9989 15.195 27.5968 15.195 33.5957C15.195 37.6317 17.4621 39.4033 19.4524 40.9586C21.0095 42.1754 22.3972 43.2598 22.3972 45.1925C22.3972 45.9861 21.9961 47.5904 19.9993 47.5904C17.2004 47.5904 14.0004 44.7915 14.0004 44.7915L12.3961 50.3893C12.3961 50.3893 15.5961 54.3915 21.9961 54.3915C27.1929 54.3915 31.1951 50.3893 31.1951 44.3904C31.1951 39.4929 27.8944 37.1438 25.3364 35.3233C23.7182 34.1716 22.3972 33.2314 22.3972 31.9915C22.3972 31.1893 22.3972 28.7915 26.3993 28.7915ZM34.3951 4.38613C34.7961 5.58933 35.1972 7.1936 35.1972 9.1904V9.59147C35.7988 9.59147 36.298 9.4912 36.7972 9.39093C37.2964 9.29067 37.7956 9.1904 38.3972 9.1904C37.595 6.784 36.3919 4.38613 34.3951 4.38613ZM52.3919 11.9893C52.7929 11.9893 53.194 11.9893 53.194 12.3904C53.194 12.592 54.9126 24.5198 56.622 36.3834C58.3131 48.1202 59.9951 59.7941 59.9951 59.9893L40.7951 63.9915L43.1929 7.99573H43.594C43.9951 8.39679 47.1951 11.5883 47.1951 11.5883C47.1951 11.5883 51.9908 11.9893 52.3919 11.9893Z"/></svg>